# xmcd
#
# Track frame offsets: 
#        150
#        15781
#        31739
#        46503
#        68818
#        85269
#        98823
#        114867
#        130781
#        147074
#        161342
#        177072
#        195847
#        210431
#        229634
#
# Disc length: 3422 seconds
#
# Revision: 2
# Processed by: cddbd v1.5.2PL0 Copyright (c) Steve Scherf et al.
# Submitted via: ExactAudioCopy v1.0b3
#
DISCID=9e0d5c0f
DTITLE=Kristina Bach - Best Of  Alles von mir CD2
DYEAR=2005
DGENRE=Schlager
TTITLE0=Reden ist Silber und Kuessen Gold
TTITLE1=Wahre Luegen
TTITLE2=Erst ein Cappuccino
TTITLE3=Gib nicht auf (Duett mit Drafi Deutscher)
TTITLE4=Hoerst du denn noch immer Al Martino
TTITLE5=Caballero, Caballero
TTITLE6=Du machst eine Frau erst zur Frau (Mix 2005)
TTITLE7=Rio de Janeiro
TTITLE8=Ganz schoen sexy
TTITLE9=Maenner sind doch schliesslich zum Vergnuegen da (Single Versi
TTITLE9=on)
TTITLE10=Unveschaemte blaue Augen
TTITLE11=Schiffbruch in meiner Seele
TTITLE12=Keine Nacht war zu viel
TTITLE13=Phantom of the opera (der USA Charthit!)
TTITLE14=Hitmedley Alles von mir
EXTD=YEAR: 2005
EXTT0=
EXTT1=
EXTT2=
EXTT3=
EXTT4=
EXTT5=
EXTT6=
EXTT7=
EXTT8=
EXTT9=
EXTT10=
EXTT11=
EXTT12=
EXTT13=
EXTT14=
PLAYORDER=
